<svg width="22" height="22" viewBox="0 0 22 22" fill="none" xmlns="http://www.w3.org/2000/svg">
<path fill-rule="evenodd" clip-rule="evenodd" d="M7.95455 2C4.81656 2 2.27273 4.23858 2.27273 7H0C0 3.13401 3.56137 0 7.95455 0H14.0455C18.4386 0 22 3.13401 22 7H19.7273C19.7273 4.23858 17.1834 2 14.0455 2H7.95455ZM2.27273 15C2.27273 17.7614 4.81656 20 7.95455 20H14.0455C17.1834 20 19.7273 17.7614 19.7273 15H22C22 18.866 18.4386 22 14.0455 22H7.95455C3.56137 22 0 18.866 0 15H2.27273Z" fill="white"/>
</svg>
