<svg width="22" height="22" viewBox="0 0 22 22" fill="none" xmlns="http://www.w3.org/2000/svg">
<path d="M11.859 5.93036V10.6443L14.987 13.7732C15.1481 13.9343 15.2386 14.1528 15.2386 14.3807C15.2386 14.6085 15.1481 14.8271 14.987 14.9882C14.8259 15.1493 14.6074 15.2398 14.3795 15.2398C14.1516 15.2398 13.9331 15.1493 13.772 14.9882L10.392 11.6082C10.2307 11.447 10.1401 11.2283 10.14 11.0003V5.93036C10.14 5.70241 10.2306 5.4838 10.3917 5.32262C10.5529 5.16143 10.7715 5.07088 10.9995 5.07088C11.2275 5.07088 11.4461 5.16143 11.6073 5.32262C11.7684 5.4838 11.859 5.70241 11.859 5.93036ZM14.38 0.000503529H7.62C5.78221 -0.00235872 4.00573 0.661315 2.62 1.86846V0.859477C2.62 0.631529 2.52944 0.412918 2.36826 0.251734C2.20707 0.0905499 1.98845 0 1.7605 0C1.53254 0 1.31393 0.0905499 1.15274 0.251734C0.991553 0.412918 0.901001 0.631529 0.901001 0.859477V4.23941C0.901529 4.46706 0.992196 4.68524 1.15318 4.84622C1.31415 5.00719 1.53234 5.09787 1.76 5.09839H5.14C5.36795 5.09839 5.58657 5.00783 5.74776 4.84664C5.90894 4.68546 5.9995 4.46685 5.9995 4.2389C5.9995 4.01095 5.90894 3.79234 5.74776 3.63116C5.58657 3.46997 5.36795 3.37942 5.14 3.37942H3.515C4.61569 2.31678 6.08504 1.72153 7.615 1.71847H14.375C15.9391 1.72058 17.4386 2.34285 18.5446 3.44883C19.6506 4.55482 20.2729 6.05423 20.275 7.61833V14.3782C20.2729 15.9423 19.6506 17.4417 18.5446 18.5477C17.4386 19.6537 15.9391 20.2759 14.375 20.278H7.615C6.05087 20.2759 4.55141 19.6537 3.4454 18.5477C2.3394 17.4417 1.71711 15.9423 1.715 14.3782V11.0003C1.70206 10.7816 1.60608 10.5762 1.44669 10.4259C1.2873 10.2757 1.07654 10.192 0.857498 10.192C0.638461 10.192 0.427702 10.2757 0.268311 10.4259C0.108919 10.5762 0.0129387 10.7816 0 11.0003V14.3802C0.00211772 16.4004 0.805616 18.3373 2.23418 19.7659C3.66275 21.1944 5.5997 21.9979 7.62 22H14.38C16.4003 21.9979 18.3372 21.1944 19.7658 19.7659C21.1944 18.3373 21.9979 16.4004 22 14.3802V7.62032C21.9979 5.60007 21.1944 3.66318 19.7658 2.23464C18.3372 0.806109 16.4003 0.0026212 14.38 0.000503529Z" fill="white"/>
</svg>
