<svg width="14" height="14" viewBox="0 0 14 14" fill="none" xmlns="http://www.w3.org/2000/svg">
<g clip-path="url(#clip0_3533_386)">
<path d="M11.0634 8.90358C11.4985 8.17551 11.7872 7.25466 11.8432 6.3435C11.8787 5.75868 11.7484 5.14478 11.4662 4.5675C11.0236 3.66065 10.2632 3.15122 9.52866 2.65902C8.98046 2.29176 8.46242 1.94496 8.09623 1.44953L8.03053 1.36121C7.81405 1.07042 7.56957 0.740851 7.53079 0.464057C7.49202 0.184032 7.23784 -0.0152164 6.95997 0.00093885C6.6778 0.0203252 6.45916 0.254038 6.45916 0.537294V10.1335C6.00789 9.85997 5.45215 9.69195 4.84363 9.69195C3.3595 9.69195 2.15108 10.658 2.15108 11.846C2.15108 13.0339 3.3595 14 4.84363 14C6.32776 14 7.53618 13.0339 7.53618 11.846V5.56913C8.34502 5.87823 9.66868 6.66553 10.0327 8.504C9.96486 8.60417 9.90024 8.71187 9.82484 8.79803C9.62775 9.02097 9.64929 9.36131 9.87331 9.55733C10.0952 9.7555 10.4355 9.7318 10.6326 9.50886C10.7769 9.34515 10.9051 9.15344 11.0279 8.95312C11.0408 8.93804 11.0527 8.92189 11.0634 8.90358Z" fill="white"/>
</g>
<defs>
<clipPath id="clip0_3533_386">
<rect width="14" height="14" fill="white"/>
</clipPath>
</defs>
</svg>
